<svg xmlns="http://www.w3.org/2000/svg" width="18" height="22" viewBox="0 0 18 22" fill="none">
<g opacity="0.7">
<path opacity="0.3" fill-rule="evenodd" clip-rule="evenodd" d="M4.29015 7.3562H3.30962C3.25908 7.3562 3.18414 7.4265 3.18124 7.47295L2.45889 19.1476L15.9548 19.1451L15.2253 7.47295C15.2225 7.42828 15.1457 7.3562 15.0969 7.3562H14.1164V9.32145C14.1164 9.86413 13.6764 10.3041 13.1338 10.3041C12.5911 10.3041 12.1511 9.86413 12.1511 9.32145V7.3562L6.2554 7.3562V9.32145C6.2554 9.86413 5.81546 10.3041 5.27277 10.3041C4.73009 10.3041 4.29015 9.86413 4.29015 9.32145V7.3562Z" fill="white"/>
<path fill-rule="evenodd" clip-rule="evenodd" d="M9.20327 0.478271C11.9153 0.478271 14.1164 2.6796 14.1164 5.38906L15.0969 5.39138C16.1834 5.39138 17.1192 6.27035 17.1867 7.35079L17.9244 19.1539C17.992 20.2361 17.1698 21.1133 16.0865 21.1133H2.32009C1.23738 21.1133 0.414605 20.2344 0.482133 19.1539L1.21983 7.35079C1.28746 6.26864 2.22126 5.39138 3.30963 5.39138H4.29016C4.29016 2.67813 6.49303 0.478271 9.20327 0.478271ZM12.1511 5.39149C12.1511 3.76503 10.8299 2.44362 9.20326 2.44362C7.57779 2.44362 6.2554 3.76421 6.2554 5.38917L12.1511 5.39149ZM4.29016 7.35657H3.30963C3.25909 7.35657 3.18415 7.42687 3.18125 7.47332L2.4589 19.148L15.9548 19.1455L15.2253 7.47332C15.2225 7.42864 15.1457 7.35657 15.0969 7.35657H14.1164V9.32181C14.1164 9.8645 13.6764 10.3044 13.1338 10.3044C12.5911 10.3044 12.1511 9.8645 12.1511 9.32181V7.35657L6.2554 7.35657L6.2554 9.32181C6.2554 9.8645 5.81547 10.3044 5.27278 10.3044C4.7301 10.3044 4.29016 9.8645 4.29016 9.32181V7.35657Z" fill="white"/>
</g>
</svg>