<svg xmlns="http://www.w3.org/2000/svg" width="24" height="25" viewBox="0 0 24 25" fill="none">
<path d="M16.5463 13.7649C17.2963 13.7649 17.9563 13.3549 18.2963 12.7349L21.8763 6.24489C22.2463 5.58489 21.7663 4.76489 21.0063 4.76489H6.20634L5.26634 2.76489H1.99634V4.76489H3.99634L7.59634 12.3549L6.24634 14.7949C5.51634 16.1349 6.47634 17.7649 7.99634 17.7649H19.9963V15.7649H7.99634L9.09634 13.7649H16.5463ZM7.15634 6.76489H19.3063L16.5463 11.7649H9.52634L7.15634 6.76489ZM7.99634 18.7649C6.89634 18.7649 6.00634 19.6649 6.00634 20.7649C6.00634 21.8649 6.89634 22.7649 7.99634 22.7649C9.09634 22.7649 9.99634 21.8649 9.99634 20.7649C9.99634 19.6649 9.09634 18.7649 7.99634 18.7649ZM17.9963 18.7649C16.8963 18.7649 16.0063 19.6649 16.0063 20.7649C16.0063 21.8649 16.8963 22.7649 17.9963 22.7649C19.0963 22.7649 19.9963 21.8649 19.9963 20.7649C19.9963 19.6649 19.0963 18.7649 17.9963 18.7649Z" fill="white"/>
</svg>